<?xml version="1.0" encoding="utf-8" standalone="no"?>
<!DOCTYPE svg PUBLIC "-//W3C//DTD SVG 1.1//EN"
  "http://www.w3.org/Graphics/SVG/1.1/DTD/svg11.dtd">
<svg xmlns:xlink="http://www.w3.org/1999/xlink" width="720pt" height="432pt" viewBox="0 0 720 432" xmlns="http://www.w3.org/2000/svg" version="1.1">
 <metadata>
  <rdf:RDF xmlns:dc="http://purl.org/dc/elements/1.1/" xmlns:cc="http://creativecommons.org/ns#" xmlns:rdf="http://www.w3.org/1999/02/22-rdf-syntax-ns#">
   <cc:Work>
    <dc:type rdf:resource="http://purl.org/dc/dcmitype/StillImage"/>
    <dc:date>2025-03-10T16:47:45.675621</dc:date>
    <dc:format>image/svg+xml</dc:format>
    <dc:creator>
     <cc:Agent>
      <dc:title>Matplotlib v3.5.2, https://matplotlib.org/</dc:title>
     </cc:Agent>
    </dc:creator>
   </cc:Work>
  </rdf:RDF>
 </metadata>
 <defs>
  <style type="text/css">*{stroke-linejoin: round; stroke-linecap: butt}</style>
 </defs>
 <g id="figure_1">
  <g id="patch_1">
   <path d="M 0 432 
L 720 432 
L 720 0 
L 0 0 
z
" style="fill: #ffffff"/>
  </g>
  <g id="axes_1">
   <g id="patch_2">
    <path d="M 79.22 363.971471 
L 704.88 363.971471 
L 704.88 54.816 
L 79.22 54.816 
z
" style="fill: #ffffff"/>
   </g>
   <g id="patch_3">
    <path d="M 107.659091 363.971471 
L 122.190013 363.971471 
L 122.190013 230.901534 
L 107.659091 230.901534 
z
" clip-path="url(#p3ae8c9ece4)" style="fill: #1f77b4; opacity: 0.7"/>
   </g>
   <g id="patch_4">
    <path d="M 149.176012 363.971471 
L 163.706934 363.971471 
L 163.706934 295.217524 
L 149.176012 295.217524 
z
" clip-path="url(#p3ae8c9ece4)" style="fill: #1f77b4; opacity: 0.7"/>
   </g>
   <g id="patch_5">
    <path d="M 190.692933 363.971471 
L 205.223855 363.971471 
L 205.223855 215.069834 
L 190.692933 215.069834 
z
" clip-path="url(#p3ae8c9ece4)" style="fill: #1f77b4; opacity: 0.7"/>
   </g>
   <g id="patch_6">
    <path d="M 232.209854 363.971471 
L 246.740776 363.971471 
L 246.740776 295.944742 
L 232.209854 295.944742 
z
" clip-path="url(#p3ae8c9ece4)" style="fill: #1f77b4; opacity: 0.7"/>
   </g>
   <g id="patch_7">
    <path d="M 273.726775 363.971471 
L 288.257697 363.971471 
L 288.257697 243.26726 
L 273.726775 243.26726 
z
" clip-path="url(#p3ae8c9ece4)" style="fill: #1f77b4; opacity: 0.7"/>
   </g>
   <g id="patch_8">
    <path d="M 315.243696 363.971471 
L 329.774618 363.971471 
L 329.774618 278.349668 
L 315.243696 278.349668 
z
" clip-path="url(#p3ae8c9ece4)" style="fill: #1f77b4; opacity: 0.7"/>
   </g>
   <g id="patch_9">
    <path d="M 356.760617 363.971471 
L 371.291539 363.971471 
L 371.291539 69.537689 
L 356.760617 69.537689 
z
" clip-path="url(#p3ae8c9ece4)" style="fill: #1f77b4; opacity: 0.7"/>
   </g>
   <g id="patch_10">
    <path d="M 398.277538 363.971471 
L 412.808461 363.971471 
L 412.808461 209.51421 
L 398.277538 209.51421 
z
" clip-path="url(#p3ae8c9ece4)" style="fill: #1f77b4; opacity: 0.7"/>
   </g>
   <g id="patch_11">
    <path d="M 439.794459 363.971471 
L 454.325382 363.971471 
L 454.325382 161.675109 
L 439.794459 161.675109 
z
" clip-path="url(#p3ae8c9ece4)" style="fill: #1f77b4; opacity: 0.7"/>
   </g>
   <g id="patch_12">
    <path d="M 481.31138 363.971471 
L 495.842303 363.971471 
L 495.842303 242.170056 
L 481.31138 242.170056 
z
" clip-path="url(#p3ae8c9ece4)" style="fill: #1f77b4; opacity: 0.7"/>
   </g>
   <g id="patch_13">
    <path d="M 522.828301 363.971471 
L 537.359224 363.971471 
L 537.359224 242.942546 
L 522.828301 242.942546 
z
" clip-path="url(#p3ae8c9ece4)" style="fill: #1f77b4; opacity: 0.7"/>
   </g>
   <g id="patch_14">
    <path d="M 564.345222 363.971471 
L 578.876145 363.971471 
L 578.876145 275.199896 
L 564.345222 275.199896 
z
" clip-path="url(#p3ae8c9ece4)" style="fill: #1f77b4; opacity: 0.7"/>
   </g>
   <g id="patch_15">
    <path d="M 605.862143 363.971471 
L 620.393066 363.971471 
L 620.393066 215.630357 
L 605.862143 215.630357 
z
" clip-path="url(#p3ae8c9ece4)" style="fill: #1f77b4; opacity: 0.7"/>
   </g>
   <g id="patch_16">
    <path d="M 647.379064 363.971471 
L 661.909987 363.971471 
L 661.909987 252.474799 
L 647.379064 252.474799 
z
" clip-path="url(#p3ae8c9ece4)" style="fill: #1f77b4; opacity: 0.7"/>
   </g>
   <g id="patch_17">
    <path d="M 122.190013 363.971471 
L 136.720936 363.971471 
L 136.720936 204.31652 
L 122.190013 204.31652 
z
" clip-path="url(#p3ae8c9ece4)" style="fill: #ff7f0e; opacity: 0.7"/>
   </g>
   <g id="patch_18">
    <path d="M 163.706934 363.971471 
L 178.237857 363.971471 
L 178.237857 261.206564 
L 163.706934 261.206564 
z
" clip-path="url(#p3ae8c9ece4)" style="fill: #ff7f0e; opacity: 0.7"/>
   </g>
   <g id="patch_19">
    <path d="M 205.223855 363.971471 
L 219.754778 363.971471 
L 219.754778 119.221724 
L 205.223855 119.221724 
z
" clip-path="url(#p3ae8c9ece4)" style="fill: #ff7f0e; opacity: 0.7"/>
   </g>
   <g id="patch_20">
    <path d="M 246.740776 363.971471 
L 261.271699 363.971471 
L 261.271699 200.433968 
L 246.740776 200.433968 
z
" clip-path="url(#p3ae8c9ece4)" style="fill: #ff7f0e; opacity: 0.7"/>
   </g>
   <g id="patch_21">
    <path d="M 288.257697 363.971471 
L 302.78862 363.971471 
L 302.78862 122.95751 
L 288.257697 122.95751 
z
" clip-path="url(#p3ae8c9ece4)" style="fill: #ff7f0e; opacity: 0.7"/>
   </g>
   <g id="patch_22">
    <path d="M 329.774618 363.971471 
L 344.305541 363.971471 
L 344.305541 198.827214 
L 329.774618 198.827214 
z
" clip-path="url(#p3ae8c9ece4)" style="fill: #ff7f0e; opacity: 0.7"/>
   </g>
   <g id="patch_23">
    <path d="M 371.291539 363.971471 
L 385.822462 363.971471 
L 385.822462 305.178367 
L 371.291539 305.178367 
z
" clip-path="url(#p3ae8c9ece4)" style="fill: #ff7f0e; opacity: 0.7"/>
   </g>
   <g id="patch_24">
    <path d="M 412.808461 363.971471 
L 427.339383 363.971471 
L 427.339383 327.286695 
L 412.808461 327.286695 
z
" clip-path="url(#p3ae8c9ece4)" style="fill: #ff7f0e; opacity: 0.7"/>
   </g>
   <g id="patch_25">
    <path d="M 454.325382 363.971471 
L 468.856304 363.971471 
L 468.856304 291.074039 
L 454.325382 291.074039 
z
" clip-path="url(#p3ae8c9ece4)" style="fill: #ff7f0e; opacity: 0.7"/>
   </g>
   <g id="patch_26">
    <path d="M 495.842303 363.971471 
L 510.373225 363.971471 
L 510.373225 298.616602 
L 495.842303 298.616602 
z
" clip-path="url(#p3ae8c9ece4)" style="fill: #ff7f0e; opacity: 0.7"/>
   </g>
   <g id="patch_27">
    <path d="M 537.359224 363.971471 
L 551.890146 363.971471 
L 551.890146 255.179691 
L 537.359224 255.179691 
z
" clip-path="url(#p3ae8c9ece4)" style="fill: #ff7f0e; opacity: 0.7"/>
   </g>
   <g id="patch_28">
    <path d="M 578.876145 363.971471 
L 593.407067 363.971471 
L 593.407067 287.01418 
L 578.876145 287.01418 
z
" clip-path="url(#p3ae8c9ece4)" style="fill: #ff7f0e; opacity: 0.7"/>
   </g>
   <g id="patch_29">
    <path d="M 620.393066 363.971471 
L 634.923988 363.971471 
L 634.923988 257.697183 
L 620.393066 257.697183 
z
" clip-path="url(#p3ae8c9ece4)" style="fill: #ff7f0e; opacity: 0.7"/>
   </g>
   <g id="patch_30">
    <path d="M 661.909987 363.971471 
L 676.440909 363.971471 
L 676.440909 292.61376 
L 661.909987 292.61376 
z
" clip-path="url(#p3ae8c9ece4)" style="fill: #ff7f0e; opacity: 0.7"/>
   </g>
   <g id="matplotlib.axis_1">
    <g id="xtick_1">
     <g id="line2d_1">
      <defs>
       <path id="m98ec2f8e48" d="M 0 0 
L 0 3.5 
" style="stroke: #000000; stroke-width: 0.8"/>
      </defs>
      <g>
       <use xlink:href="#m98ec2f8e48" x="122.190013" y="363.971471" style="stroke: #000000; stroke-width: 0.8"/>
      </g>
     </g>
     <g id="text_1">
      <!-- 2 -->
      <g transform="translate(121.712716 386.766469)rotate(-45)scale(0.16 -0.16)">
       <defs>
        <path id="DejaVuSans-32" d="M 1228 531 
L 3431 531 
L 3431 0 
L 469 0 
L 469 531 
Q 828 903 1448 1529 
Q 2069 2156 2228 2338 
Q 2531 2678 2651 2914 
Q 2772 3150 2772 3378 
Q 2772 3750 2511 3984 
Q 2250 4219 1831 4219 
Q 1534 4219 1204 4116 
Q 875 4013 500 3803 
L 500 4441 
Q 881 4594 1212 4672 
Q 1544 4750 1819 4750 
Q 2544 4750 2975 4387 
Q 3406 4025 3406 3419 
Q 3406 3131 3298 2873 
Q 3191 2616 2906 2266 
Q 2828 2175 2409 1742 
Q 1991 1309 1228 531 
z
" transform="scale(0.015625)"/>
       </defs>
       <use xlink:href="#DejaVuSans-32"/>
      </g>
     </g>
    </g>
    <g id="xtick_2">
     <g id="line2d_2">
      <g>
       <use xlink:href="#m98ec2f8e48" x="163.706934" y="363.971471" style="stroke: #000000; stroke-width: 0.8"/>
      </g>
     </g>
     <g id="text_2">
      <!-- 3 -->
      <g transform="translate(163.229637 386.766469)rotate(-45)scale(0.16 -0.16)">
       <defs>
        <path id="DejaVuSans-33" d="M 2597 2516 
Q 3050 2419 3304 2112 
Q 3559 1806 3559 1356 
Q 3559 666 3084 287 
Q 2609 -91 1734 -91 
Q 1441 -91 1130 -33 
Q 819 25 488 141 
L 488 750 
Q 750 597 1062 519 
Q 1375 441 1716 441 
Q 2309 441 2620 675 
Q 2931 909 2931 1356 
Q 2931 1769 2642 2001 
Q 2353 2234 1838 2234 
L 1294 2234 
L 1294 2753 
L 1863 2753 
Q 2328 2753 2575 2939 
Q 2822 3125 2822 3475 
Q 2822 3834 2567 4026 
Q 2313 4219 1838 4219 
Q 1578 4219 1281 4162 
Q 984 4106 628 3988 
L 628 4550 
Q 988 4650 1302 4700 
Q 1616 4750 1894 4750 
Q 2613 4750 3031 4423 
Q 3450 4097 3450 3541 
Q 3450 3153 3228 2886 
Q 3006 2619 2597 2516 
z
" transform="scale(0.015625)"/>
       </defs>
       <use xlink:href="#DejaVuSans-33"/>
      </g>
     </g>
    </g>
    <g id="xtick_3">
     <g id="line2d_3">
      <g>
       <use xlink:href="#m98ec2f8e48" x="205.223855" y="363.971471" style="stroke: #000000; stroke-width: 0.8"/>
      </g>
     </g>
     <g id="text_3">
      <!-- 4 -->
      <g transform="translate(204.746558 386.766469)rotate(-45)scale(0.16 -0.16)">
       <defs>
        <path id="DejaVuSans-34" d="M 2419 4116 
L 825 1625 
L 2419 1625 
L 2419 4116 
z
M 2253 4666 
L 3047 4666 
L 3047 1625 
L 3713 1625 
L 3713 1100 
L 3047 1100 
L 3047 0 
L 2419 0 
L 2419 1100 
L 313 1100 
L 313 1709 
L 2253 4666 
z
" transform="scale(0.015625)"/>
       </defs>
       <use xlink:href="#DejaVuSans-34"/>
      </g>
     </g>
    </g>
    <g id="xtick_4">
     <g id="line2d_4">
      <g>
       <use xlink:href="#m98ec2f8e48" x="246.740776" y="363.971471" style="stroke: #000000; stroke-width: 0.8"/>
      </g>
     </g>
     <g id="text_4">
      <!-- 5 -->
      <g transform="translate(246.263479 386.766469)rotate(-45)scale(0.16 -0.16)">
       <defs>
        <path id="DejaVuSans-35" d="M 691 4666 
L 3169 4666 
L 3169 4134 
L 1269 4134 
L 1269 2991 
Q 1406 3038 1543 3061 
Q 1681 3084 1819 3084 
Q 2600 3084 3056 2656 
Q 3513 2228 3513 1497 
Q 3513 744 3044 326 
Q 2575 -91 1722 -91 
Q 1428 -91 1123 -41 
Q 819 9 494 109 
L 494 744 
Q 775 591 1075 516 
Q 1375 441 1709 441 
Q 2250 441 2565 725 
Q 2881 1009 2881 1497 
Q 2881 1984 2565 2268 
Q 2250 2553 1709 2553 
Q 1456 2553 1204 2497 
Q 953 2441 691 2322 
L 691 4666 
z
" transform="scale(0.015625)"/>
       </defs>
       <use xlink:href="#DejaVuSans-35"/>
      </g>
     </g>
    </g>
    <g id="xtick_5">
     <g id="line2d_5">
      <g>
       <use xlink:href="#m98ec2f8e48" x="288.257697" y="363.971471" style="stroke: #000000; stroke-width: 0.8"/>
      </g>
     </g>
     <g id="text_5">
      <!-- 6 -->
      <g transform="translate(287.7804 386.766469)rotate(-45)scale(0.16 -0.16)">
       <defs>
        <path id="DejaVuSans-36" d="M 2113 2584 
Q 1688 2584 1439 2293 
Q 1191 2003 1191 1497 
Q 1191 994 1439 701 
Q 1688 409 2113 409 
Q 2538 409 2786 701 
Q 3034 994 3034 1497 
Q 3034 2003 2786 2293 
Q 2538 2584 2113 2584 
z
M 3366 4563 
L 3366 3988 
Q 3128 4100 2886 4159 
Q 2644 4219 2406 4219 
Q 1781 4219 1451 3797 
Q 1122 3375 1075 2522 
Q 1259 2794 1537 2939 
Q 1816 3084 2150 3084 
Q 2853 3084 3261 2657 
Q 3669 2231 3669 1497 
Q 3669 778 3244 343 
Q 2819 -91 2113 -91 
Q 1303 -91 875 529 
Q 447 1150 447 2328 
Q 447 3434 972 4092 
Q 1497 4750 2381 4750 
Q 2619 4750 2861 4703 
Q 3103 4656 3366 4563 
z
" transform="scale(0.015625)"/>
       </defs>
       <use xlink:href="#DejaVuSans-36"/>
      </g>
     </g>
    </g>
    <g id="xtick_6">
     <g id="line2d_6">
      <g>
       <use xlink:href="#m98ec2f8e48" x="329.774618" y="363.971471" style="stroke: #000000; stroke-width: 0.8"/>
      </g>
     </g>
     <g id="text_6">
      <!-- 7 -->
      <g transform="translate(329.297321 386.766469)rotate(-45)scale(0.16 -0.16)">
       <defs>
        <path id="DejaVuSans-37" d="M 525 4666 
L 3525 4666 
L 3525 4397 
L 1831 0 
L 1172 0 
L 2766 4134 
L 525 4134 
L 525 4666 
z
" transform="scale(0.015625)"/>
       </defs>
       <use xlink:href="#DejaVuSans-37"/>
      </g>
     </g>
    </g>
    <g id="xtick_7">
     <g id="line2d_7">
      <g>
       <use xlink:href="#m98ec2f8e48" x="371.291539" y="363.971471" style="stroke: #000000; stroke-width: 0.8"/>
      </g>
     </g>
     <g id="text_7">
      <!-- 8 -->
      <g transform="translate(370.814242 386.766469)rotate(-45)scale(0.16 -0.16)">
       <defs>
        <path id="DejaVuSans-38" d="M 2034 2216 
Q 1584 2216 1326 1975 
Q 1069 1734 1069 1313 
Q 1069 891 1326 650 
Q 1584 409 2034 409 
Q 2484 409 2743 651 
Q 3003 894 3003 1313 
Q 3003 1734 2745 1975 
Q 2488 2216 2034 2216 
z
M 1403 2484 
Q 997 2584 770 2862 
Q 544 3141 544 3541 
Q 544 4100 942 4425 
Q 1341 4750 2034 4750 
Q 2731 4750 3128 4425 
Q 3525 4100 3525 3541 
Q 3525 3141 3298 2862 
Q 3072 2584 2669 2484 
Q 3125 2378 3379 2068 
Q 3634 1759 3634 1313 
Q 3634 634 3220 271 
Q 2806 -91 2034 -91 
Q 1263 -91 848 271 
Q 434 634 434 1313 
Q 434 1759 690 2068 
Q 947 2378 1403 2484 
z
M 1172 3481 
Q 1172 3119 1398 2916 
Q 1625 2713 2034 2713 
Q 2441 2713 2670 2916 
Q 2900 3119 2900 3481 
Q 2900 3844 2670 4047 
Q 2441 4250 2034 4250 
Q 1625 4250 1398 4047 
Q 1172 3844 1172 3481 
z
" transform="scale(0.015625)"/>
       </defs>
       <use xlink:href="#DejaVuSans-38"/>
      </g>
     </g>
    </g>
    <g id="xtick_8">
     <g id="line2d_8">
      <g>
       <use xlink:href="#m98ec2f8e48" x="412.808461" y="363.971471" style="stroke: #000000; stroke-width: 0.8"/>
      </g>
     </g>
     <g id="text_8">
      <!-- 9 -->
      <g transform="translate(412.331163 386.766469)rotate(-45)scale(0.16 -0.16)">
       <defs>
        <path id="DejaVuSans-39" d="M 703 97 
L 703 672 
Q 941 559 1184 500 
Q 1428 441 1663 441 
Q 2288 441 2617 861 
Q 2947 1281 2994 2138 
Q 2813 1869 2534 1725 
Q 2256 1581 1919 1581 
Q 1219 1581 811 2004 
Q 403 2428 403 3163 
Q 403 3881 828 4315 
Q 1253 4750 1959 4750 
Q 2769 4750 3195 4129 
Q 3622 3509 3622 2328 
Q 3622 1225 3098 567 
Q 2575 -91 1691 -91 
Q 1453 -91 1209 -44 
Q 966 3 703 97 
z
M 1959 2075 
Q 2384 2075 2632 2365 
Q 2881 2656 2881 3163 
Q 2881 3666 2632 3958 
Q 2384 4250 1959 4250 
Q 1534 4250 1286 3958 
Q 1038 3666 1038 3163 
Q 1038 2656 1286 2365 
Q 1534 2075 1959 2075 
z
" transform="scale(0.015625)"/>
       </defs>
       <use xlink:href="#DejaVuSans-39"/>
      </g>
     </g>
    </g>
    <g id="xtick_9">
     <g id="line2d_9">
      <g>
       <use xlink:href="#m98ec2f8e48" x="454.325382" y="363.971471" style="stroke: #000000; stroke-width: 0.8"/>
      </g>
     </g>
     <g id="text_9">
      <!-- 10 -->
      <g transform="translate(450.248911 393.964816)rotate(-45)scale(0.16 -0.16)">
       <defs>
        <path id="DejaVuSans-31" d="M 794 531 
L 1825 531 
L 1825 4091 
L 703 3866 
L 703 4441 
L 1819 4666 
L 2450 4666 
L 2450 531 
L 3481 531 
L 3481 0 
L 794 0 
L 794 531 
z
" transform="scale(0.015625)"/>
        <path id="DejaVuSans-30" d="M 2034 4250 
Q 1547 4250 1301 3770 
Q 1056 3291 1056 2328 
Q 1056 1369 1301 889 
Q 1547 409 2034 409 
Q 2525 409 2770 889 
Q 3016 1369 3016 2328 
Q 3016 3291 2770 3770 
Q 2525 4250 2034 4250 
z
M 2034 4750 
Q 2819 4750 3233 4129 
Q 3647 3509 3647 2328 
Q 3647 1150 3233 529 
Q 2819 -91 2034 -91 
Q 1250 -91 836 529 
Q 422 1150 422 2328 
Q 422 3509 836 4129 
Q 1250 4750 2034 4750 
z
" transform="scale(0.015625)"/>
       </defs>
       <use xlink:href="#DejaVuSans-31"/>
       <use xlink:href="#DejaVuSans-30" x="63.623047"/>
      </g>
     </g>
    </g>
    <g id="xtick_10">
     <g id="line2d_10">
      <g>
       <use xlink:href="#m98ec2f8e48" x="495.842303" y="363.971471" style="stroke: #000000; stroke-width: 0.8"/>
      </g>
     </g>
     <g id="text_10">
      <!-- 11 -->
      <g transform="translate(491.765832 393.964816)rotate(-45)scale(0.16 -0.16)">
       <use xlink:href="#DejaVuSans-31"/>
       <use xlink:href="#DejaVuSans-31" x="63.623047"/>
      </g>
     </g>
    </g>
    <g id="xtick_11">
     <g id="line2d_11">
      <g>
       <use xlink:href="#m98ec2f8e48" x="537.359224" y="363.971471" style="stroke: #000000; stroke-width: 0.8"/>
      </g>
     </g>
     <g id="text_11">
      <!-- 12 -->
      <g transform="translate(533.282753 393.964816)rotate(-45)scale(0.16 -0.16)">
       <use xlink:href="#DejaVuSans-31"/>
       <use xlink:href="#DejaVuSans-32" x="63.623047"/>
      </g>
     </g>
    </g>
    <g id="xtick_12">
     <g id="line2d_12">
      <g>
       <use xlink:href="#m98ec2f8e48" x="578.876145" y="363.971471" style="stroke: #000000; stroke-width: 0.8"/>
      </g>
     </g>
     <g id="text_12">
      <!-- 13 -->
      <g transform="translate(574.799674 393.964816)rotate(-45)scale(0.16 -0.16)">
       <use xlink:href="#DejaVuSans-31"/>
       <use xlink:href="#DejaVuSans-33" x="63.623047"/>
      </g>
     </g>
    </g>
    <g id="xtick_13">
     <g id="line2d_13">
      <g>
       <use xlink:href="#m98ec2f8e48" x="620.393066" y="363.971471" style="stroke: #000000; stroke-width: 0.8"/>
      </g>
     </g>
     <g id="text_13">
      <!-- 14 -->
      <g transform="translate(616.316595 393.964816)rotate(-45)scale(0.16 -0.16)">
       <use xlink:href="#DejaVuSans-31"/>
       <use xlink:href="#DejaVuSans-34" x="63.623047"/>
      </g>
     </g>
    </g>
    <g id="xtick_14">
     <g id="line2d_14">
      <g>
       <use xlink:href="#m98ec2f8e48" x="661.909987" y="363.971471" style="stroke: #000000; stroke-width: 0.8"/>
      </g>
     </g>
     <g id="text_14">
      <!-- 15 -->
      <g transform="translate(657.833516 393.964816)rotate(-45)scale(0.16 -0.16)">
       <use xlink:href="#DejaVuSans-31"/>
       <use xlink:href="#DejaVuSans-35" x="63.623047"/>
      </g>
     </g>
    </g>
    <g id="text_15">
     <!-- Participating NWDAFs ID/tag Sum -->
     <g transform="translate(220.628125 413.994901)scale(0.18 -0.18)">
      <defs>
       <path id="DejaVuSans-Bold-50" d="M 588 4666 
L 2584 4666 
Q 3475 4666 3951 4270 
Q 4428 3875 4428 3144 
Q 4428 2409 3951 2014 
Q 3475 1619 2584 1619 
L 1791 1619 
L 1791 0 
L 588 0 
L 588 4666 
z
M 1791 3794 
L 1791 2491 
L 2456 2491 
Q 2806 2491 2997 2661 
Q 3188 2831 3188 3144 
Q 3188 3456 2997 3625 
Q 2806 3794 2456 3794 
L 1791 3794 
z
" transform="scale(0.015625)"/>
       <path id="DejaVuSans-Bold-61" d="M 2106 1575 
Q 1756 1575 1579 1456 
Q 1403 1338 1403 1106 
Q 1403 894 1545 773 
Q 1688 653 1941 653 
Q 2256 653 2472 879 
Q 2688 1106 2688 1447 
L 2688 1575 
L 2106 1575 
z
M 3816 1997 
L 3816 0 
L 2688 0 
L 2688 519 
Q 2463 200 2181 54 
Q 1900 -91 1497 -91 
Q 953 -91 614 226 
Q 275 544 275 1050 
Q 275 1666 698 1953 
Q 1122 2241 2028 2241 
L 2688 2241 
L 2688 2328 
Q 2688 2594 2478 2717 
Q 2269 2841 1825 2841 
Q 1466 2841 1156 2769 
Q 847 2697 581 2553 
L 581 3406 
Q 941 3494 1303 3539 
Q 1666 3584 2028 3584 
Q 2975 3584 3395 3211 
Q 3816 2838 3816 1997 
z
" transform="scale(0.015625)"/>
       <path id="DejaVuSans-Bold-72" d="M 3138 2547 
Q 2991 2616 2845 2648 
Q 2700 2681 2553 2681 
Q 2122 2681 1889 2404 
Q 1656 2128 1656 1613 
L 1656 0 
L 538 0 
L 538 3500 
L 1656 3500 
L 1656 2925 
Q 1872 3269 2151 3426 
Q 2431 3584 2822 3584 
Q 2878 3584 2943 3579 
Q 3009 3575 3134 3559 
L 3138 2547 
z
" transform="scale(0.015625)"/>
       <path id="DejaVuSans-Bold-74" d="M 1759 4494 
L 1759 3500 
L 2913 3500 
L 2913 2700 
L 1759 2700 
L 1759 1216 
Q 1759 972 1856 886 
Q 1953 800 2241 800 
L 2816 800 
L 2816 0 
L 1856 0 
Q 1194 0 917 276 
Q 641 553 641 1216 
L 641 2700 
L 84 2700 
L 84 3500 
L 641 3500 
L 641 4494 
L 1759 4494 
z
" transform="scale(0.015625)"/>
       <path id="DejaVuSans-Bold-69" d="M 538 3500 
L 1656 3500 
L 1656 0 
L 538 0 
L 538 3500 
z
M 538 4863 
L 1656 4863 
L 1656 3950 
L 538 3950 
L 538 4863 
z
" transform="scale(0.015625)"/>
       <path id="DejaVuSans-Bold-63" d="M 3366 3391 
L 3366 2478 
Q 3138 2634 2908 2709 
Q 2678 2784 2431 2784 
Q 1963 2784 1702 2511 
Q 1441 2238 1441 1747 
Q 1441 1256 1702 982 
Q 1963 709 2431 709 
Q 2694 709 2930 787 
Q 3166 866 3366 1019 
L 3366 103 
Q 3103 6 2833 -42 
Q 2563 -91 2291 -91 
Q 1344 -91 809 395 
Q 275 881 275 1747 
Q 275 2613 809 3098 
Q 1344 3584 2291 3584 
Q 2566 3584 2833 3536 
Q 3100 3488 3366 3391 
z
" transform="scale(0.015625)"/>
       <path id="DejaVuSans-Bold-70" d="M 1656 506 
L 1656 -1331 
L 538 -1331 
L 538 3500 
L 1656 3500 
L 1656 2988 
Q 1888 3294 2169 3439 
Q 2450 3584 2816 3584 
Q 3463 3584 3878 3070 
Q 4294 2556 4294 1747 
Q 4294 938 3878 423 
Q 3463 -91 2816 -91 
Q 2450 -91 2169 54 
Q 1888 200 1656 506 
z
M 2400 2772 
Q 2041 2772 1848 2508 
Q 1656 2244 1656 1747 
Q 1656 1250 1848 986 
Q 2041 722 2400 722 
Q 2759 722 2948 984 
Q 3138 1247 3138 1747 
Q 3138 2247 2948 2509 
Q 2759 2772 2400 2772 
z
" transform="scale(0.015625)"/>
       <path id="DejaVuSans-Bold-6e" d="M 4056 2131 
L 4056 0 
L 2931 0 
L 2931 347 
L 2931 1631 
Q 2931 2084 2911 2256 
Q 2891 2428 2841 2509 
Q 2775 2619 2662 2680 
Q 2550 2741 2406 2741 
Q 2056 2741 1856 2470 
Q 1656 2200 1656 1722 
L 1656 0 
L 538 0 
L 538 3500 
L 1656 3500 
L 1656 2988 
Q 1909 3294 2193 3439 
Q 2478 3584 2822 3584 
Q 3428 3584 3742 3212 
Q 4056 2841 4056 2131 
z
" transform="scale(0.015625)"/>
       <path id="DejaVuSans-Bold-67" d="M 2919 594 
Q 2688 288 2409 144 
Q 2131 0 1766 0 
Q 1125 0 706 504 
Q 288 1009 288 1791 
Q 288 2575 706 3076 
Q 1125 3578 1766 3578 
Q 2131 3578 2409 3434 
Q 2688 3291 2919 2981 
L 2919 3500 
L 4044 3500 
L 4044 353 
Q 4044 -491 3511 -936 
Q 2978 -1381 1966 -1381 
Q 1638 -1381 1331 -1331 
Q 1025 -1281 716 -1178 
L 716 -306 
Q 1009 -475 1290 -558 
Q 1572 -641 1856 -641 
Q 2406 -641 2662 -400 
Q 2919 -159 2919 353 
L 2919 594 
z
M 2181 2772 
Q 1834 2772 1640 2515 
Q 1447 2259 1447 1791 
Q 1447 1309 1634 1061 
Q 1822 813 2181 813 
Q 2531 813 2725 1069 
Q 2919 1325 2919 1791 
Q 2919 2259 2725 2515 
Q 2531 2772 2181 2772 
z
" transform="scale(0.015625)"/>
       <path id="DejaVuSans-Bold-20" transform="scale(0.015625)"/>
       <path id="DejaVuSans-Bold-4e" d="M 588 4666 
L 1931 4666 
L 3628 1466 
L 3628 4666 
L 4769 4666 
L 4769 0 
L 3425 0 
L 1728 3200 
L 1728 0 
L 588 0 
L 588 4666 
z
" transform="scale(0.015625)"/>
       <path id="DejaVuSans-Bold-57" d="M 191 4666 
L 1344 4666 
L 2150 1275 
L 2950 4666 
L 4109 4666 
L 4909 1275 
L 5716 4666 
L 6859 4666 
L 5759 0 
L 4372 0 
L 3525 3547 
L 2688 0 
L 1300 0 
L 191 4666 
z
" transform="scale(0.015625)"/>
       <path id="DejaVuSans-Bold-44" d="M 1791 3756 
L 1791 909 
L 2222 909 
Q 2959 909 3348 1275 
Q 3738 1641 3738 2338 
Q 3738 3031 3350 3393 
Q 2963 3756 2222 3756 
L 1791 3756 
z
M 588 4666 
L 1856 4666 
Q 2919 4666 3439 4514 
Q 3959 4363 4331 4000 
Q 4659 3684 4818 3271 
Q 4978 2859 4978 2338 
Q 4978 1809 4818 1395 
Q 4659 981 4331 666 
Q 3956 303 3431 151 
Q 2906 0 1856 0 
L 588 0 
L 588 4666 
z
" transform="scale(0.015625)"/>
       <path id="DejaVuSans-Bold-41" d="M 3419 850 
L 1538 850 
L 1241 0 
L 31 0 
L 1759 4666 
L 3194 4666 
L 4922 0 
L 3713 0 
L 3419 850 
z
M 1838 1716 
L 3116 1716 
L 2478 3572 
L 1838 1716 
z
" transform="scale(0.015625)"/>
       <path id="DejaVuSans-Bold-46" d="M 588 4666 
L 3834 4666 
L 3834 3756 
L 1791 3756 
L 1791 2888 
L 3713 2888 
L 3713 1978 
L 1791 1978 
L 1791 0 
L 588 0 
L 588 4666 
z
" transform="scale(0.015625)"/>
       <path id="DejaVuSans-Bold-73" d="M 3272 3391 
L 3272 2541 
Q 2913 2691 2578 2766 
Q 2244 2841 1947 2841 
Q 1628 2841 1473 2761 
Q 1319 2681 1319 2516 
Q 1319 2381 1436 2309 
Q 1553 2238 1856 2203 
L 2053 2175 
Q 2913 2066 3209 1816 
Q 3506 1566 3506 1031 
Q 3506 472 3093 190 
Q 2681 -91 1863 -91 
Q 1516 -91 1145 -36 
Q 775 19 384 128 
L 384 978 
Q 719 816 1070 734 
Q 1422 653 1784 653 
Q 2113 653 2278 743 
Q 2444 834 2444 1013 
Q 2444 1163 2330 1236 
Q 2216 1309 1875 1350 
L 1678 1375 
Q 931 1469 631 1722 
Q 331 1975 331 2491 
Q 331 3047 712 3315 
Q 1094 3584 1881 3584 
Q 2191 3584 2531 3537 
Q 2872 3491 3272 3391 
z
" transform="scale(0.015625)"/>
       <path id="DejaVuSans-Bold-49" d="M 588 4666 
L 1791 4666 
L 1791 0 
L 588 0 
L 588 4666 
z
" transform="scale(0.015625)"/>
       <path id="DejaVuSans-Bold-2f" d="M 1644 4666 
L 2338 4666 
L 691 -594 
L 0 -594 
L 1644 4666 
z
" transform="scale(0.015625)"/>
       <path id="DejaVuSans-Bold-53" d="M 3834 4519 
L 3834 3531 
Q 3450 3703 3084 3790 
Q 2719 3878 2394 3878 
Q 1963 3878 1756 3759 
Q 1550 3641 1550 3391 
Q 1550 3203 1689 3098 
Q 1828 2994 2194 2919 
L 2706 2816 
Q 3484 2659 3812 2340 
Q 4141 2022 4141 1434 
Q 4141 663 3683 286 
Q 3225 -91 2284 -91 
Q 1841 -91 1394 -6 
Q 947 78 500 244 
L 500 1259 
Q 947 1022 1364 901 
Q 1781 781 2169 781 
Q 2563 781 2772 912 
Q 2981 1044 2981 1288 
Q 2981 1506 2839 1625 
Q 2697 1744 2272 1838 
L 1806 1941 
Q 1106 2091 782 2419 
Q 459 2747 459 3303 
Q 459 4000 909 4375 
Q 1359 4750 2203 4750 
Q 2588 4750 2994 4692 
Q 3400 4634 3834 4519 
z
" transform="scale(0.015625)"/>
       <path id="DejaVuSans-Bold-75" d="M 500 1363 
L 500 3500 
L 1625 3500 
L 1625 3150 
Q 1625 2866 1622 2436 
Q 1619 2006 1619 1863 
Q 1619 1441 1641 1255 
Q 1663 1069 1716 984 
Q 1784 875 1895 815 
Q 2006 756 2150 756 
Q 2500 756 2700 1025 
Q 2900 1294 2900 1772 
L 2900 3500 
L 4019 3500 
L 4019 0 
L 2900 0 
L 2900 506 
Q 2647 200 2364 54 
Q 2081 -91 1741 -91 
Q 1134 -91 817 281 
Q 500 653 500 1363 
z
" transform="scale(0.015625)"/>
       <path id="DejaVuSans-Bold-6d" d="M 3781 2919 
Q 3994 3244 4286 3414 
Q 4578 3584 4928 3584 
Q 5531 3584 5847 3212 
Q 6163 2841 6163 2131 
L 6163 0 
L 5038 0 
L 5038 1825 
Q 5041 1866 5042 1909 
Q 5044 1953 5044 2034 
Q 5044 2406 4934 2573 
Q 4825 2741 4581 2741 
Q 4263 2741 4089 2478 
Q 3916 2216 3909 1719 
L 3909 0 
L 2784 0 
L 2784 1825 
Q 2784 2406 2684 2573 
Q 2584 2741 2328 2741 
Q 2006 2741 1831 2477 
Q 1656 2213 1656 1722 
L 1656 0 
L 531 0 
L 531 3500 
L 1656 3500 
L 1656 2988 
Q 1863 3284 2130 3434 
Q 2397 3584 2719 3584 
Q 3081 3584 3359 3409 
Q 3638 3234 3781 2919 
z
" transform="scale(0.015625)"/>
      </defs>
      <use xlink:href="#DejaVuSans-Bold-50"/>
      <use xlink:href="#DejaVuSans-Bold-61" x="70.666016"/>
      <use xlink:href="#DejaVuSans-Bold-72" x="138.146484"/>
      <use xlink:href="#DejaVuSans-Bold-74" x="187.462891"/>
      <use xlink:href="#DejaVuSans-Bold-69" x="235.265625"/>
      <use xlink:href="#DejaVuSans-Bold-63" x="269.542969"/>
      <use xlink:href="#DejaVuSans-Bold-69" x="328.820312"/>
      <use xlink:href="#DejaVuSans-Bold-70" x="363.097656"/>
      <use xlink:href="#DejaVuSans-Bold-61" x="434.679688"/>
      <use xlink:href="#DejaVuSans-Bold-74" x="502.160156"/>
      <use xlink:href="#DejaVuSans-Bold-69" x="549.962891"/>
      <use xlink:href="#DejaVuSans-Bold-6e" x="584.240234"/>
      <use xlink:href="#DejaVuSans-Bold-67" x="655.431641"/>
      <use xlink:href="#DejaVuSans-Bold-20" x="727.013672"/>
      <use xlink:href="#DejaVuSans-Bold-4e" x="761.828125"/>
      <use xlink:href="#DejaVuSans-Bold-57" x="845.519531"/>
      <use xlink:href="#DejaVuSans-Bold-44" x="955.822266"/>
      <use xlink:href="#DejaVuSans-Bold-41" x="1038.830078"/>
      <use xlink:href="#DejaVuSans-Bold-46" x="1116.222656"/>
      <use xlink:href="#DejaVuSans-Bold-73" x="1184.533203"/>
      <use xlink:href="#DejaVuSans-Bold-20" x="1244.054688"/>
      <use xlink:href="#DejaVuSans-Bold-49" x="1278.869141"/>
      <use xlink:href="#DejaVuSans-Bold-44" x="1316.076172"/>
      <use xlink:href="#DejaVuSans-Bold-2f" x="1399.083984"/>
      <use xlink:href="#DejaVuSans-Bold-74" x="1435.607422"/>
      <use xlink:href="#DejaVuSans-Bold-61" x="1483.410156"/>
      <use xlink:href="#DejaVuSans-Bold-67" x="1550.890625"/>
      <use xlink:href="#DejaVuSans-Bold-20" x="1622.472656"/>
      <use xlink:href="#DejaVuSans-Bold-53" x="1657.287109"/>
      <use xlink:href="#DejaVuSans-Bold-75" x="1729.308594"/>
      <use xlink:href="#DejaVuSans-Bold-6d" x="1800.5"/>
     </g>
    </g>
   </g>
   <g id="matplotlib.axis_2">
    <g id="ytick_1">
     <g id="line2d_15">
      <path d="M 79.22 363.971471 
L 704.88 363.971471 
" clip-path="url(#p3ae8c9ece4)" style="fill: none; stroke-dasharray: 2.96,1.28; stroke-dashoffset: 0; stroke: #b0b0b0; stroke-opacity: 0.3; stroke-width: 0.8"/>
     </g>
     <g id="line2d_16">
      <defs>
       <path id="mbfafcf2878" d="M 0 0 
L -3.5 0 
" style="stroke: #000000; stroke-width: 0.8"/>
      </defs>
      <g>
       <use xlink:href="#mbfafcf2878" x="79.22" y="363.971471" style="stroke: #000000; stroke-width: 0.8"/>
      </g>
     </g>
     <g id="text_16">
      <!-- 0.00 -->
      <g transform="translate(36.595 370.050221)scale(0.16 -0.16)">
       <defs>
        <path id="DejaVuSans-2e" d="M 684 794 
L 1344 794 
L 1344 0 
L 684 0 
L 684 794 
z
" transform="scale(0.015625)"/>
       </defs>
       <use xlink:href="#DejaVuSans-30"/>
       <use xlink:href="#DejaVuSans-2e" x="63.623047"/>
       <use xlink:href="#DejaVuSans-30" x="95.410156"/>
       <use xlink:href="#DejaVuSans-30" x="159.033203"/>
      </g>
     </g>
    </g>
    <g id="ytick_2">
     <g id="line2d_17">
      <path d="M 79.22 323.637637 
L 704.88 323.637637 
" clip-path="url(#p3ae8c9ece4)" style="fill: none; stroke-dasharray: 2.96,1.28; stroke-dashoffset: 0; stroke: #b0b0b0; stroke-opacity: 0.3; stroke-width: 0.8"/>
     </g>
     <g id="line2d_18">
      <g>
       <use xlink:href="#mbfafcf2878" x="79.22" y="323.637637" style="stroke: #000000; stroke-width: 0.8"/>
      </g>
     </g>
     <g id="text_17">
      <!-- 0.05 -->
      <g transform="translate(36.595 329.716387)scale(0.16 -0.16)">
       <use xlink:href="#DejaVuSans-30"/>
       <use xlink:href="#DejaVuSans-2e" x="63.623047"/>
       <use xlink:href="#DejaVuSans-30" x="95.410156"/>
       <use xlink:href="#DejaVuSans-35" x="159.033203"/>
      </g>
     </g>
    </g>
    <g id="ytick_3">
     <g id="line2d_19">
      <path d="M 79.22 283.303804 
L 704.88 283.303804 
" clip-path="url(#p3ae8c9ece4)" style="fill: none; stroke-dasharray: 2.96,1.28; stroke-dashoffset: 0; stroke: #b0b0b0; stroke-opacity: 0.3; stroke-width: 0.8"/>
     </g>
     <g id="line2d_20">
      <g>
       <use xlink:href="#mbfafcf2878" x="79.22" y="283.303804" style="stroke: #000000; stroke-width: 0.8"/>
      </g>
     </g>
     <g id="text_18">
      <!-- 0.10 -->
      <g transform="translate(36.595 289.382554)scale(0.16 -0.16)">
       <use xlink:href="#DejaVuSans-30"/>
       <use xlink:href="#DejaVuSans-2e" x="63.623047"/>
       <use xlink:href="#DejaVuSans-31" x="95.410156"/>
       <use xlink:href="#DejaVuSans-30" x="159.033203"/>
      </g>
     </g>
    </g>
    <g id="ytick_4">
     <g id="line2d_21">
      <path d="M 79.22 242.969971 
L 704.88 242.969971 
" clip-path="url(#p3ae8c9ece4)" style="fill: none; stroke-dasharray: 2.96,1.28; stroke-dashoffset: 0; stroke: #b0b0b0; stroke-opacity: 0.3; stroke-width: 0.8"/>
     </g>
     <g id="line2d_22">
      <g>
       <use xlink:href="#mbfafcf2878" x="79.22" y="242.969971" style="stroke: #000000; stroke-width: 0.8"/>
      </g>
     </g>
     <g id="text_19">
      <!-- 0.15 -->
      <g transform="translate(36.595 249.048721)scale(0.16 -0.16)">
       <use xlink:href="#DejaVuSans-30"/>
       <use xlink:href="#DejaVuSans-2e" x="63.623047"/>
       <use xlink:href="#DejaVuSans-31" x="95.410156"/>
       <use xlink:href="#DejaVuSans-35" x="159.033203"/>
      </g>
     </g>
    </g>
    <g id="ytick_5">
     <g id="line2d_23">
      <path d="M 79.22 202.636138 
L 704.88 202.636138 
" clip-path="url(#p3ae8c9ece4)" style="fill: none; stroke-dasharray: 2.96,1.28; stroke-dashoffset: 0; stroke: #b0b0b0; stroke-opacity: 0.3; stroke-width: 0.8"/>
     </g>
     <g id="line2d_24">
      <g>
       <use xlink:href="#mbfafcf2878" x="79.22" y="202.636138" style="stroke: #000000; stroke-width: 0.8"/>
      </g>
     </g>
     <g id="text_20">
      <!-- 0.20 -->
      <g transform="translate(36.595 208.714888)scale(0.16 -0.16)">
       <use xlink:href="#DejaVuSans-30"/>
       <use xlink:href="#DejaVuSans-2e" x="63.623047"/>
       <use xlink:href="#DejaVuSans-32" x="95.410156"/>
       <use xlink:href="#DejaVuSans-30" x="159.033203"/>
      </g>
     </g>
    </g>
    <g id="ytick_6">
     <g id="line2d_25">
      <path d="M 79.22 162.302304 
L 704.88 162.302304 
" clip-path="url(#p3ae8c9ece4)" style="fill: none; stroke-dasharray: 2.96,1.28; stroke-dashoffset: 0; stroke: #b0b0b0; stroke-opacity: 0.3; stroke-width: 0.8"/>
     </g>
     <g id="line2d_26">
      <g>
       <use xlink:href="#mbfafcf2878" x="79.22" y="162.302304" style="stroke: #000000; stroke-width: 0.8"/>
      </g>
     </g>
     <g id="text_21">
      <!-- 0.25 -->
      <g transform="translate(36.595 168.381054)scale(0.16 -0.16)">
       <use xlink:href="#DejaVuSans-30"/>
       <use xlink:href="#DejaVuSans-2e" x="63.623047"/>
       <use xlink:href="#DejaVuSans-32" x="95.410156"/>
       <use xlink:href="#DejaVuSans-35" x="159.033203"/>
      </g>
     </g>
    </g>
    <g id="ytick_7">
     <g id="line2d_27">
      <path d="M 79.22 121.968471 
L 704.88 121.968471 
" clip-path="url(#p3ae8c9ece4)" style="fill: none; stroke-dasharray: 2.96,1.28; stroke-dashoffset: 0; stroke: #b0b0b0; stroke-opacity: 0.3; stroke-width: 0.8"/>
     </g>
     <g id="line2d_28">
      <g>
       <use xlink:href="#mbfafcf2878" x="79.22" y="121.968471" style="stroke: #000000; stroke-width: 0.8"/>
      </g>
     </g>
     <g id="text_22">
      <!-- 0.30 -->
      <g transform="translate(36.595 128.047221)scale(0.16 -0.16)">
       <use xlink:href="#DejaVuSans-30"/>
       <use xlink:href="#DejaVuSans-2e" x="63.623047"/>
       <use xlink:href="#DejaVuSans-33" x="95.410156"/>
       <use xlink:href="#DejaVuSans-30" x="159.033203"/>
      </g>
     </g>
    </g>
    <g id="ytick_8">
     <g id="line2d_29">
      <path d="M 79.22 81.634638 
L 704.88 81.634638 
" clip-path="url(#p3ae8c9ece4)" style="fill: none; stroke-dasharray: 2.96,1.28; stroke-dashoffset: 0; stroke: #b0b0b0; stroke-opacity: 0.3; stroke-width: 0.8"/>
     </g>
     <g id="line2d_30">
      <g>
       <use xlink:href="#mbfafcf2878" x="79.22" y="81.634638" style="stroke: #000000; stroke-width: 0.8"/>
      </g>
     </g>
     <g id="text_23">
      <!-- 0.35 -->
      <g transform="translate(36.595 87.713388)scale(0.16 -0.16)">
       <use xlink:href="#DejaVuSans-30"/>
       <use xlink:href="#DejaVuSans-2e" x="63.623047"/>
       <use xlink:href="#DejaVuSans-33" x="95.410156"/>
       <use xlink:href="#DejaVuSans-35" x="159.033203"/>
      </g>
     </g>
    </g>
    <g id="text_24">
     <!-- Weighted Loss -->
     <g transform="translate(28.710938 283.645142)rotate(-90)scale(0.18 -0.18)">
      <defs>
       <path id="DejaVuSans-Bold-65" d="M 4031 1759 
L 4031 1441 
L 1416 1441 
Q 1456 1047 1700 850 
Q 1944 653 2381 653 
Q 2734 653 3104 758 
Q 3475 863 3866 1075 
L 3866 213 
Q 3469 63 3072 -14 
Q 2675 -91 2278 -91 
Q 1328 -91 801 392 
Q 275 875 275 1747 
Q 275 2603 792 3093 
Q 1309 3584 2216 3584 
Q 3041 3584 3536 3087 
Q 4031 2591 4031 1759 
z
M 2881 2131 
Q 2881 2450 2695 2645 
Q 2509 2841 2209 2841 
Q 1884 2841 1681 2658 
Q 1478 2475 1428 2131 
L 2881 2131 
z
" transform="scale(0.015625)"/>
       <path id="DejaVuSans-Bold-68" d="M 4056 2131 
L 4056 0 
L 2931 0 
L 2931 347 
L 2931 1625 
Q 2931 2084 2911 2256 
Q 2891 2428 2841 2509 
Q 2775 2619 2662 2680 
Q 2550 2741 2406 2741 
Q 2056 2741 1856 2470 
Q 1656 2200 1656 1722 
L 1656 0 
L 538 0 
L 538 4863 
L 1656 4863 
L 1656 2988 
Q 1909 3294 2193 3439 
Q 2478 3584 2822 3584 
Q 3428 3584 3742 3212 
Q 4056 2841 4056 2131 
z
" transform="scale(0.015625)"/>
       <path id="DejaVuSans-Bold-64" d="M 2919 2988 
L 2919 4863 
L 4044 4863 
L 4044 0 
L 2919 0 
L 2919 506 
Q 2688 197 2409 53 
Q 2131 -91 1766 -91 
Q 1119 -91 703 423 
Q 288 938 288 1747 
Q 288 2556 703 3070 
Q 1119 3584 1766 3584 
Q 2128 3584 2408 3439 
Q 2688 3294 2919 2988 
z
M 2181 722 
Q 2541 722 2730 984 
Q 2919 1247 2919 1747 
Q 2919 2247 2730 2509 
Q 2541 2772 2181 2772 
Q 1825 2772 1636 2509 
Q 1447 2247 1447 1747 
Q 1447 1247 1636 984 
Q 1825 722 2181 722 
z
" transform="scale(0.015625)"/>
       <path id="DejaVuSans-Bold-4c" d="M 588 4666 
L 1791 4666 
L 1791 909 
L 3903 909 
L 3903 0 
L 588 0 
L 588 4666 
z
" transform="scale(0.015625)"/>
       <path id="DejaVuSans-Bold-6f" d="M 2203 2784 
Q 1831 2784 1636 2517 
Q 1441 2250 1441 1747 
Q 1441 1244 1636 976 
Q 1831 709 2203 709 
Q 2569 709 2762 976 
Q 2956 1244 2956 1747 
Q 2956 2250 2762 2517 
Q 2569 2784 2203 2784 
z
M 2203 3584 
Q 3106 3584 3614 3096 
Q 4122 2609 4122 1747 
Q 4122 884 3614 396 
Q 3106 -91 2203 -91 
Q 1297 -91 786 396 
Q 275 884 275 1747 
Q 275 2609 786 3096 
Q 1297 3584 2203 3584 
z
" transform="scale(0.015625)"/>
      </defs>
      <use xlink:href="#DejaVuSans-Bold-57"/>
      <use xlink:href="#DejaVuSans-Bold-65" x="106.677734"/>
      <use xlink:href="#DejaVuSans-Bold-69" x="174.5"/>
      <use xlink:href="#DejaVuSans-Bold-67" x="208.777344"/>
      <use xlink:href="#DejaVuSans-Bold-68" x="280.359375"/>
      <use xlink:href="#DejaVuSans-Bold-74" x="351.550781"/>
      <use xlink:href="#DejaVuSans-Bold-65" x="399.353516"/>
      <use xlink:href="#DejaVuSans-Bold-64" x="467.175781"/>
      <use xlink:href="#DejaVuSans-Bold-20" x="538.757812"/>
      <use xlink:href="#DejaVuSans-Bold-4c" x="573.572266"/>
      <use xlink:href="#DejaVuSans-Bold-6f" x="637.292969"/>
      <use xlink:href="#DejaVuSans-Bold-73" x="705.994141"/>
      <use xlink:href="#DejaVuSans-Bold-73" x="765.515625"/>
     </g>
    </g>
   </g>
   <g id="patch_31">
    <path d="M 79.22 363.971471 
L 79.22 54.816 
" style="fill: none; stroke: #000000; stroke-width: 0.8; stroke-linejoin: miter; stroke-linecap: square"/>
   </g>
   <g id="patch_32">
    <path d="M 704.88 363.971471 
L 704.88 54.816 
" style="fill: none; stroke: #000000; stroke-width: 0.8; stroke-linejoin: miter; stroke-linecap: square"/>
   </g>
   <g id="patch_33">
    <path d="M 79.22 363.971471 
L 704.88 363.971471 
" style="fill: none; stroke: #000000; stroke-width: 0.8; stroke-linejoin: miter; stroke-linecap: square"/>
   </g>
   <g id="patch_34">
    <path d="M 79.22 54.816 
L 704.88 54.816 
" style="fill: none; stroke: #000000; stroke-width: 0.8; stroke-linejoin: miter; stroke-linecap: square"/>
   </g>
   <g id="text_25">
    <!-- Performance Comparison: Test Loss - Proposed Method vs. SoTA VFL -->
    <g transform="translate(43.347813 28.659937)scale(0.18 -0.18)">
     <defs>
      <path id="DejaVuSans-Bold-66" d="M 2841 4863 
L 2841 4128 
L 2222 4128 
Q 1984 4128 1890 4042 
Q 1797 3956 1797 3744 
L 1797 3500 
L 2753 3500 
L 2753 2700 
L 1797 2700 
L 1797 0 
L 678 0 
L 678 2700 
L 122 2700 
L 122 3500 
L 678 3500 
L 678 3744 
Q 678 4316 997 4589 
Q 1316 4863 1984 4863 
L 2841 4863 
z
" transform="scale(0.015625)"/>
      <path id="DejaVuSans-Bold-43" d="M 4288 256 
Q 3956 84 3597 -3 
Q 3238 -91 2847 -91 
Q 1681 -91 1000 561 
Q 319 1213 319 2328 
Q 319 3447 1000 4098 
Q 1681 4750 2847 4750 
Q 3238 4750 3597 4662 
Q 3956 4575 4288 4403 
L 4288 3438 
Q 3953 3666 3628 3772 
Q 3303 3878 2944 3878 
Q 2300 3878 1931 3465 
Q 1563 3053 1563 2328 
Q 1563 1606 1931 1193 
Q 2300 781 2944 781 
Q 3303 781 3628 887 
Q 3953 994 4288 1222 
L 4288 256 
z
" transform="scale(0.015625)"/>
      <path id="DejaVuSans-Bold-3a" d="M 716 3500 
L 1844 3500 
L 1844 2291 
L 716 2291 
L 716 3500 
z
M 716 1209 
L 1844 1209 
L 1844 0 
L 716 0 
L 716 1209 
z
" transform="scale(0.015625)"/>
      <path id="DejaVuSans-Bold-54" d="M 31 4666 
L 4331 4666 
L 4331 3756 
L 2784 3756 
L 2784 0 
L 1581 0 
L 1581 3756 
L 31 3756 
L 31 4666 
z
" transform="scale(0.015625)"/>
      <path id="DejaVuSans-Bold-2d" d="M 347 2297 
L 2309 2297 
L 2309 1388 
L 347 1388 
L 347 2297 
z
" transform="scale(0.015625)"/>
      <path id="DejaVuSans-Bold-4d" d="M 588 4666 
L 2119 4666 
L 3181 2169 
L 4250 4666 
L 5778 4666 
L 5778 0 
L 4641 0 
L 4641 3413 
L 3566 897 
L 2803 897 
L 1728 3413 
L 1728 0 
L 588 0 
L 588 4666 
z
" transform="scale(0.015625)"/>
      <path id="DejaVuSans-Bold-76" d="M 97 3500 
L 1216 3500 
L 2088 1081 
L 2956 3500 
L 4078 3500 
L 2700 0 
L 1472 0 
L 97 3500 
z
" transform="scale(0.015625)"/>
      <path id="DejaVuSans-Bold-2e" d="M 653 1209 
L 1778 1209 
L 1778 0 
L 653 0 
L 653 1209 
z
" transform="scale(0.015625)"/>
      <path id="DejaVuSans-Bold-56" d="M 31 4666 
L 1241 4666 
L 2478 1222 
L 3713 4666 
L 4922 4666 
L 3194 0 
L 1759 0 
L 31 4666 
z
" transform="scale(0.015625)"/>
     </defs>
     <use xlink:href="#DejaVuSans-Bold-50"/>
     <use xlink:href="#DejaVuSans-Bold-65" x="73.291016"/>
     <use xlink:href="#DejaVuSans-Bold-72" x="141.113281"/>
     <use xlink:href="#DejaVuSans-Bold-66" x="190.429688"/>
     <use xlink:href="#DejaVuSans-Bold-6f" x="233.935547"/>
     <use xlink:href="#DejaVuSans-Bold-72" x="302.636719"/>
     <use xlink:href="#DejaVuSans-Bold-6d" x="351.953125"/>
     <use xlink:href="#DejaVuSans-Bold-61" x="456.152344"/>
     <use xlink:href="#DejaVuSans-Bold-6e" x="523.632812"/>
     <use xlink:href="#DejaVuSans-Bold-63" x="594.824219"/>
     <use xlink:href="#DejaVuSans-Bold-65" x="654.101562"/>
     <use xlink:href="#DejaVuSans-Bold-20" x="721.923828"/>
     <use xlink:href="#DejaVuSans-Bold-43" x="756.738281"/>
     <use xlink:href="#DejaVuSans-Bold-6f" x="830.126953"/>
     <use xlink:href="#DejaVuSans-Bold-6d" x="898.828125"/>
     <use xlink:href="#DejaVuSans-Bold-70" x="1003.027344"/>
     <use xlink:href="#DejaVuSans-Bold-61" x="1074.609375"/>
     <use xlink:href="#DejaVuSans-Bold-72" x="1142.089844"/>
     <use xlink:href="#DejaVuSans-Bold-69" x="1191.40625"/>
     <use xlink:href="#DejaVuSans-Bold-73" x="1225.683594"/>
     <use xlink:href="#DejaVuSans-Bold-6f" x="1285.205078"/>
     <use xlink:href="#DejaVuSans-Bold-6e" x="1353.90625"/>
     <use xlink:href="#DejaVuSans-Bold-3a" x="1425.097656"/>
     <use xlink:href="#DejaVuSans-Bold-20" x="1465.087891"/>
     <use xlink:href="#DejaVuSans-Bold-54" x="1499.902344"/>
     <use xlink:href="#DejaVuSans-Bold-65" x="1554.865234"/>
     <use xlink:href="#DejaVuSans-Bold-73" x="1622.6875"/>
     <use xlink:href="#DejaVuSans-Bold-74" x="1682.208984"/>
     <use xlink:href="#DejaVuSans-Bold-20" x="1730.011719"/>
     <use xlink:href="#DejaVuSans-Bold-4c" x="1764.826172"/>
     <use xlink:href="#DejaVuSans-Bold-6f" x="1828.546875"/>
     <use xlink:href="#DejaVuSans-Bold-73" x="1897.248047"/>
     <use xlink:href="#DejaVuSans-Bold-73" x="1956.769531"/>
     <use xlink:href="#DejaVuSans-Bold-20" x="2016.291016"/>
     <use xlink:href="#DejaVuSans-Bold-2d" x="2051.105469"/>
     <use xlink:href="#DejaVuSans-Bold-20" x="2092.609375"/>
     <use xlink:href="#DejaVuSans-Bold-50" x="2127.423828"/>
     <use xlink:href="#DejaVuSans-Bold-72" x="2200.714844"/>
     <use xlink:href="#DejaVuSans-Bold-6f" x="2250.03125"/>
     <use xlink:href="#DejaVuSans-Bold-70" x="2318.732422"/>
     <use xlink:href="#DejaVuSans-Bold-6f" x="2390.314453"/>
     <use xlink:href="#DejaVuSans-Bold-73" x="2459.015625"/>
     <use xlink:href="#DejaVuSans-Bold-65" x="2518.537109"/>
     <use xlink:href="#DejaVuSans-Bold-64" x="2586.359375"/>
     <use xlink:href="#DejaVuSans-Bold-20" x="2657.941406"/>
     <use xlink:href="#DejaVuSans-Bold-4d" x="2692.755859"/>
     <use xlink:href="#DejaVuSans-Bold-65" x="2792.267578"/>
     <use xlink:href="#DejaVuSans-Bold-74" x="2860.089844"/>
     <use xlink:href="#DejaVuSans-Bold-68" x="2907.892578"/>
     <use xlink:href="#DejaVuSans-Bold-6f" x="2979.083984"/>
     <use xlink:href="#DejaVuSans-Bold-64" x="3047.785156"/>
     <use xlink:href="#DejaVuSans-Bold-20" x="3119.367188"/>
     <use xlink:href="#DejaVuSans-Bold-76" x="3154.181641"/>
     <use xlink:href="#DejaVuSans-Bold-73" x="3219.367188"/>
     <use xlink:href="#DejaVuSans-Bold-2e" x="3278.888672"/>
     <use xlink:href="#DejaVuSans-Bold-20" x="3316.876953"/>
     <use xlink:href="#DejaVuSans-Bold-53" x="3351.691406"/>
     <use xlink:href="#DejaVuSans-Bold-6f" x="3423.712891"/>
     <use xlink:href="#DejaVuSans-Bold-54" x="3492.414062"/>
     <use xlink:href="#DejaVuSans-Bold-41" x="3552.876953"/>
     <use xlink:href="#DejaVuSans-Bold-20" x="3630.269531"/>
     <use xlink:href="#DejaVuSans-Bold-56" x="3665.083984"/>
     <use xlink:href="#DejaVuSans-Bold-46" x="3742.476562"/>
     <use xlink:href="#DejaVuSans-Bold-4c" x="3810.787109"/>
    </g>
    <!-- Weighted by ID Sum Frequencies (Scenario 2, Beta(5,3))  -->
    <g transform="translate(102.219063 48.816)scale(0.18 -0.18)">
     <defs>
      <path id="DejaVuSans-Bold-62" d="M 2400 722 
Q 2759 722 2948 984 
Q 3138 1247 3138 1747 
Q 3138 2247 2948 2509 
Q 2759 2772 2400 2772 
Q 2041 2772 1848 2508 
Q 1656 2244 1656 1747 
Q 1656 1250 1848 986 
Q 2041 722 2400 722 
z
M 1656 2988 
Q 1888 3294 2169 3439 
Q 2450 3584 2816 3584 
Q 3463 3584 3878 3070 
Q 4294 2556 4294 1747 
Q 4294 938 3878 423 
Q 3463 -91 2816 -91 
Q 2450 -91 2169 54 
Q 1888 200 1656 506 
L 1656 0 
L 538 0 
L 538 4863 
L 1656 4863 
L 1656 2988 
z
" transform="scale(0.015625)"/>
      <path id="DejaVuSans-Bold-79" d="M 78 3500 
L 1197 3500 
L 2138 1125 
L 2938 3500 
L 4056 3500 
L 2584 -331 
Q 2363 -916 2067 -1148 
Q 1772 -1381 1288 -1381 
L 641 -1381 
L 641 -647 
L 991 -647 
Q 1275 -647 1404 -556 
Q 1534 -466 1606 -231 
L 1638 -134 
L 78 3500 
z
" transform="scale(0.015625)"/>
      <path id="DejaVuSans-Bold-71" d="M 2181 2772 
Q 1825 2772 1636 2509 
Q 1447 2247 1447 1747 
Q 1447 1247 1636 984 
Q 1825 722 2181 722 
Q 2541 722 2730 984 
Q 2919 1247 2919 1747 
Q 2919 2247 2730 2509 
Q 2541 2772 2181 2772 
z
M 2919 506 
Q 2688 197 2409 53 
Q 2131 -91 1766 -91 
Q 1119 -91 703 423 
Q 288 938 288 1747 
Q 288 2556 703 3067 
Q 1119 3578 1766 3578 
Q 2131 3578 2409 3434 
Q 2688 3291 2919 2981 
L 2919 3500 
L 4044 3500 
L 4044 -1331 
L 2919 -1331 
L 2919 506 
z
" transform="scale(0.015625)"/>
      <path id="DejaVuSans-Bold-28" d="M 2413 -844 
L 1484 -844 
Q 1006 -72 778 623 
Q 550 1319 550 2003 
Q 550 2688 779 3389 
Q 1009 4091 1484 4856 
L 2413 4856 
Q 2013 4116 1813 3408 
Q 1613 2700 1613 2009 
Q 1613 1319 1811 609 
Q 2009 -100 2413 -844 
z
" transform="scale(0.015625)"/>
      <path id="DejaVuSans-Bold-32" d="M 1844 884 
L 3897 884 
L 3897 0 
L 506 0 
L 506 884 
L 2209 2388 
Q 2438 2594 2547 2791 
Q 2656 2988 2656 3200 
Q 2656 3528 2436 3728 
Q 2216 3928 1850 3928 
Q 1569 3928 1234 3808 
Q 900 3688 519 3450 
L 519 4475 
Q 925 4609 1322 4679 
Q 1719 4750 2100 4750 
Q 2938 4750 3402 4381 
Q 3866 4013 3866 3353 
Q 3866 2972 3669 2642 
Q 3472 2313 2841 1759 
L 1844 884 
z
" transform="scale(0.015625)"/>
      <path id="DejaVuSans-Bold-2c" d="M 653 1209 
L 1778 1209 
L 1778 256 
L 1006 -909 
L 341 -909 
L 653 256 
L 653 1209 
z
" transform="scale(0.015625)"/>
      <path id="DejaVuSans-Bold-42" d="M 2456 2859 
Q 2741 2859 2887 2984 
Q 3034 3109 3034 3353 
Q 3034 3594 2887 3720 
Q 2741 3847 2456 3847 
L 1791 3847 
L 1791 2859 
L 2456 2859 
z
M 2497 819 
Q 2859 819 3042 972 
Q 3225 1125 3225 1434 
Q 3225 1738 3044 1889 
Q 2863 2041 2497 2041 
L 1791 2041 
L 1791 819 
L 2497 819 
z
M 3616 2497 
Q 4003 2384 4215 2081 
Q 4428 1778 4428 1338 
Q 4428 663 3972 331 
Q 3516 0 2584 0 
L 588 0 
L 588 4666 
L 2394 4666 
Q 3366 4666 3802 4372 
Q 4238 4078 4238 3431 
Q 4238 3091 4078 2852 
Q 3919 2613 3616 2497 
z
" transform="scale(0.015625)"/>
      <path id="DejaVuSans-Bold-35" d="M 678 4666 
L 3669 4666 
L 3669 3781 
L 1638 3781 
L 1638 3059 
Q 1775 3097 1914 3117 
Q 2053 3138 2203 3138 
Q 3056 3138 3531 2711 
Q 4006 2284 4006 1522 
Q 4006 766 3489 337 
Q 2972 -91 2053 -91 
Q 1656 -91 1267 -14 
Q 878 63 494 219 
L 494 1166 
Q 875 947 1217 837 
Q 1559 728 1863 728 
Q 2300 728 2551 942 
Q 2803 1156 2803 1522 
Q 2803 1891 2551 2103 
Q 2300 2316 1863 2316 
Q 1603 2316 1309 2248 
Q 1016 2181 678 2041 
L 678 4666 
z
" transform="scale(0.015625)"/>
      <path id="DejaVuSans-Bold-33" d="M 2981 2516 
Q 3453 2394 3698 2092 
Q 3944 1791 3944 1325 
Q 3944 631 3412 270 
Q 2881 -91 1863 -91 
Q 1503 -91 1142 -33 
Q 781 25 428 141 
L 428 1069 
Q 766 900 1098 814 
Q 1431 728 1753 728 
Q 2231 728 2486 893 
Q 2741 1059 2741 1369 
Q 2741 1688 2480 1852 
Q 2219 2016 1709 2016 
L 1228 2016 
L 1228 2791 
L 1734 2791 
Q 2188 2791 2409 2933 
Q 2631 3075 2631 3366 
Q 2631 3634 2415 3781 
Q 2200 3928 1806 3928 
Q 1516 3928 1219 3862 
Q 922 3797 628 3669 
L 628 4550 
Q 984 4650 1334 4700 
Q 1684 4750 2022 4750 
Q 2931 4750 3382 4451 
Q 3834 4153 3834 3553 
Q 3834 3144 3618 2883 
Q 3403 2622 2981 2516 
z
" transform="scale(0.015625)"/>
      <path id="DejaVuSans-Bold-29" d="M 513 -844 
Q 913 -100 1113 609 
Q 1313 1319 1313 2009 
Q 1313 2700 1113 3408 
Q 913 4116 513 4856 
L 1441 4856 
Q 1916 4091 2145 3389 
Q 2375 2688 2375 2003 
Q 2375 1319 2147 623 
Q 1919 -72 1441 -844 
L 513 -844 
z
" transform="scale(0.015625)"/>
     </defs>
     <use xlink:href="#DejaVuSans-Bold-57"/>
     <use xlink:href="#DejaVuSans-Bold-65" x="106.677734"/>
     <use xlink:href="#DejaVuSans-Bold-69" x="174.5"/>
     <use xlink:href="#DejaVuSans-Bold-67" x="208.777344"/>
     <use xlink:href="#DejaVuSans-Bold-68" x="280.359375"/>
     <use xlink:href="#DejaVuSans-Bold-74" x="351.550781"/>
     <use xlink:href="#DejaVuSans-Bold-65" x="399.353516"/>
     <use xlink:href="#DejaVuSans-Bold-64" x="467.175781"/>
     <use xlink:href="#DejaVuSans-Bold-20" x="538.757812"/>
     <use xlink:href="#DejaVuSans-Bold-62" x="573.572266"/>
     <use xlink:href="#DejaVuSans-Bold-79" x="645.154297"/>
     <use xlink:href="#DejaVuSans-Bold-20" x="710.339844"/>
     <use xlink:href="#DejaVuSans-Bold-49" x="745.154297"/>
     <use xlink:href="#DejaVuSans-Bold-44" x="782.361328"/>
     <use xlink:href="#DejaVuSans-Bold-20" x="865.369141"/>
     <use xlink:href="#DejaVuSans-Bold-53" x="900.183594"/>
     <use xlink:href="#DejaVuSans-Bold-75" x="972.205078"/>
     <use xlink:href="#DejaVuSans-Bold-6d" x="1043.396484"/>
     <use xlink:href="#DejaVuSans-Bold-20" x="1147.595703"/>
     <use xlink:href="#DejaVuSans-Bold-46" x="1182.410156"/>
     <use xlink:href="#DejaVuSans-Bold-72" x="1244.345703"/>
     <use xlink:href="#DejaVuSans-Bold-65" x="1293.662109"/>
     <use xlink:href="#DejaVuSans-Bold-71" x="1361.484375"/>
     <use xlink:href="#DejaVuSans-Bold-75" x="1433.066406"/>
     <use xlink:href="#DejaVuSans-Bold-65" x="1504.257812"/>
     <use xlink:href="#DejaVuSans-Bold-6e" x="1572.080078"/>
     <use xlink:href="#DejaVuSans-Bold-63" x="1643.271484"/>
     <use xlink:href="#DejaVuSans-Bold-69" x="1702.548828"/>
     <use xlink:href="#DejaVuSans-Bold-65" x="1736.826172"/>
     <use xlink:href="#DejaVuSans-Bold-73" x="1804.648438"/>
     <use xlink:href="#DejaVuSans-Bold-20" x="1864.169922"/>
     <use xlink:href="#DejaVuSans-Bold-28" x="1898.984375"/>
     <use xlink:href="#DejaVuSans-Bold-53" x="1944.6875"/>
     <use xlink:href="#DejaVuSans-Bold-63" x="2016.708984"/>
     <use xlink:href="#DejaVuSans-Bold-65" x="2075.986328"/>
     <use xlink:href="#DejaVuSans-Bold-6e" x="2143.808594"/>
     <use xlink:href="#DejaVuSans-Bold-61" x="2215"/>
     <use xlink:href="#DejaVuSans-Bold-72" x="2282.480469"/>
     <use xlink:href="#DejaVuSans-Bold-69" x="2331.796875"/>
     <use xlink:href="#DejaVuSans-Bold-6f" x="2366.074219"/>
     <use xlink:href="#DejaVuSans-Bold-20" x="2434.775391"/>
     <use xlink:href="#DejaVuSans-Bold-32" x="2469.589844"/>
     <use xlink:href="#DejaVuSans-Bold-2c" x="2539.169922"/>
     <use xlink:href="#DejaVuSans-Bold-20" x="2577.158203"/>
     <use xlink:href="#DejaVuSans-Bold-42" x="2611.972656"/>
     <use xlink:href="#DejaVuSans-Bold-65" x="2688.193359"/>
     <use xlink:href="#DejaVuSans-Bold-74" x="2756.015625"/>
     <use xlink:href="#DejaVuSans-Bold-61" x="2803.818359"/>
     <use xlink:href="#DejaVuSans-Bold-28" x="2871.298828"/>
     <use xlink:href="#DejaVuSans-Bold-35" x="2917.001953"/>
     <use xlink:href="#DejaVuSans-Bold-2c" x="2986.582031"/>
     <use xlink:href="#DejaVuSans-Bold-33" x="3024.570312"/>
     <use xlink:href="#DejaVuSans-Bold-29" x="3094.150391"/>
     <use xlink:href="#DejaVuSans-Bold-29" x="3139.853516"/>
     <use xlink:href="#DejaVuSans-Bold-20" x="3185.556641"/>
    </g>
   </g>
   <g id="legend_1">
    <g id="patch_35">
     <path d="M 585.8275 107.11475 
L 695.08 107.11475 
Q 697.88 107.11475 697.88 104.31475 
L 697.88 64.616 
Q 697.88 61.816 695.08 61.816 
L 585.8275 61.816 
Q 583.0275 61.816 583.0275 64.616 
L 583.0275 104.31475 
Q 583.0275 107.11475 585.8275 107.11475 
z
" style="fill: #ffffff; opacity: 0.8; stroke: #cccccc; stroke-linejoin: miter"/>
    </g>
    <g id="patch_36">
     <path d="M 588.6275 78.053812 
L 616.6275 78.053812 
L 616.6275 68.253812 
L 588.6275 68.253812 
z
" style="fill: #1f77b4; opacity: 0.7"/>
    </g>
    <g id="text_26">
     <!-- SoTA -->
     <g transform="translate(627.8275 78.053812)scale(0.14 -0.14)">
      <defs>
       <path id="DejaVuSans-53" d="M 3425 4513 
L 3425 3897 
Q 3066 4069 2747 4153 
Q 2428 4238 2131 4238 
Q 1616 4238 1336 4038 
Q 1056 3838 1056 3469 
Q 1056 3159 1242 3001 
Q 1428 2844 1947 2747 
L 2328 2669 
Q 3034 2534 3370 2195 
Q 3706 1856 3706 1288 
Q 3706 609 3251 259 
Q 2797 -91 1919 -91 
Q 1588 -91 1214 -16 
Q 841 59 441 206 
L 441 856 
Q 825 641 1194 531 
Q 1563 422 1919 422 
Q 2459 422 2753 634 
Q 3047 847 3047 1241 
Q 3047 1584 2836 1778 
Q 2625 1972 2144 2069 
L 1759 2144 
Q 1053 2284 737 2584 
Q 422 2884 422 3419 
Q 422 4038 858 4394 
Q 1294 4750 2059 4750 
Q 2388 4750 2728 4690 
Q 3069 4631 3425 4513 
z
" transform="scale(0.015625)"/>
       <path id="DejaVuSans-6f" d="M 1959 3097 
Q 1497 3097 1228 2736 
Q 959 2375 959 1747 
Q 959 1119 1226 758 
Q 1494 397 1959 397 
Q 2419 397 2687 759 
Q 2956 1122 2956 1747 
Q 2956 2369 2687 2733 
Q 2419 3097 1959 3097 
z
M 1959 3584 
Q 2709 3584 3137 3096 
Q 3566 2609 3566 1747 
Q 3566 888 3137 398 
Q 2709 -91 1959 -91 
Q 1206 -91 779 398 
Q 353 888 353 1747 
Q 353 2609 779 3096 
Q 1206 3584 1959 3584 
z
" transform="scale(0.015625)"/>
       <path id="DejaVuSans-54" d="M -19 4666 
L 3928 4666 
L 3928 4134 
L 2272 4134 
L 2272 0 
L 1638 0 
L 1638 4134 
L -19 4134 
L -19 4666 
z
" transform="scale(0.015625)"/>
       <path id="DejaVuSans-41" d="M 2188 4044 
L 1331 1722 
L 3047 1722 
L 2188 4044 
z
M 1831 4666 
L 2547 4666 
L 4325 0 
L 3669 0 
L 3244 1197 
L 1141 1197 
L 716 0 
L 50 0 
L 1831 4666 
z
" transform="scale(0.015625)"/>
      </defs>
      <use xlink:href="#DejaVuSans-53"/>
      <use xlink:href="#DejaVuSans-6f" x="63.476562"/>
      <use xlink:href="#DejaVuSans-54" x="124.658203"/>
      <use xlink:href="#DejaVuSans-41" x="177.992188"/>
     </g>
    </g>
    <g id="patch_37">
     <path d="M 588.6275 98.603187 
L 616.6275 98.603187 
L 616.6275 88.803187 
L 588.6275 88.803187 
z
" style="fill: #ff7f0e; opacity: 0.7"/>
    </g>
    <g id="text_27">
     <!-- Proposed -->
     <g transform="translate(627.8275 98.603187)scale(0.14 -0.14)">
      <defs>
       <path id="DejaVuSans-50" d="M 1259 4147 
L 1259 2394 
L 2053 2394 
Q 2494 2394 2734 2622 
Q 2975 2850 2975 3272 
Q 2975 3691 2734 3919 
Q 2494 4147 2053 4147 
L 1259 4147 
z
M 628 4666 
L 2053 4666 
Q 2838 4666 3239 4311 
Q 3641 3956 3641 3272 
Q 3641 2581 3239 2228 
Q 2838 1875 2053 1875 
L 1259 1875 
L 1259 0 
L 628 0 
L 628 4666 
z
" transform="scale(0.015625)"/>
       <path id="DejaVuSans-72" d="M 2631 2963 
Q 2534 3019 2420 3045 
Q 2306 3072 2169 3072 
Q 1681 3072 1420 2755 
Q 1159 2438 1159 1844 
L 1159 0 
L 581 0 
L 581 3500 
L 1159 3500 
L 1159 2956 
Q 1341 3275 1631 3429 
Q 1922 3584 2338 3584 
Q 2397 3584 2469 3576 
Q 2541 3569 2628 3553 
L 2631 2963 
z
" transform="scale(0.015625)"/>
       <path id="DejaVuSans-70" d="M 1159 525 
L 1159 -1331 
L 581 -1331 
L 581 3500 
L 1159 3500 
L 1159 2969 
Q 1341 3281 1617 3432 
Q 1894 3584 2278 3584 
Q 2916 3584 3314 3078 
Q 3713 2572 3713 1747 
Q 3713 922 3314 415 
Q 2916 -91 2278 -91 
Q 1894 -91 1617 61 
Q 1341 213 1159 525 
z
M 3116 1747 
Q 3116 2381 2855 2742 
Q 2594 3103 2138 3103 
Q 1681 3103 1420 2742 
Q 1159 2381 1159 1747 
Q 1159 1113 1420 752 
Q 1681 391 2138 391 
Q 2594 391 2855 752 
Q 3116 1113 3116 1747 
z
" transform="scale(0.015625)"/>
       <path id="DejaVuSans-73" d="M 2834 3397 
L 2834 2853 
Q 2591 2978 2328 3040 
Q 2066 3103 1784 3103 
Q 1356 3103 1142 2972 
Q 928 2841 928 2578 
Q 928 2378 1081 2264 
Q 1234 2150 1697 2047 
L 1894 2003 
Q 2506 1872 2764 1633 
Q 3022 1394 3022 966 
Q 3022 478 2636 193 
Q 2250 -91 1575 -91 
Q 1294 -91 989 -36 
Q 684 19 347 128 
L 347 722 
Q 666 556 975 473 
Q 1284 391 1588 391 
Q 1994 391 2212 530 
Q 2431 669 2431 922 
Q 2431 1156 2273 1281 
Q 2116 1406 1581 1522 
L 1381 1569 
Q 847 1681 609 1914 
Q 372 2147 372 2553 
Q 372 3047 722 3315 
Q 1072 3584 1716 3584 
Q 2034 3584 2315 3537 
Q 2597 3491 2834 3397 
z
" transform="scale(0.015625)"/>
       <path id="DejaVuSans-65" d="M 3597 1894 
L 3597 1613 
L 953 1613 
Q 991 1019 1311 708 
Q 1631 397 2203 397 
Q 2534 397 2845 478 
Q 3156 559 3463 722 
L 3463 178 
Q 3153 47 2828 -22 
Q 2503 -91 2169 -91 
Q 1331 -91 842 396 
Q 353 884 353 1716 
Q 353 2575 817 3079 
Q 1281 3584 2069 3584 
Q 2775 3584 3186 3129 
Q 3597 2675 3597 1894 
z
M 3022 2063 
Q 3016 2534 2758 2815 
Q 2500 3097 2075 3097 
Q 1594 3097 1305 2825 
Q 1016 2553 972 2059 
L 3022 2063 
z
" transform="scale(0.015625)"/>
       <path id="DejaVuSans-64" d="M 2906 2969 
L 2906 4863 
L 3481 4863 
L 3481 0 
L 2906 0 
L 2906 525 
Q 2725 213 2448 61 
Q 2172 -91 1784 -91 
Q 1150 -91 751 415 
Q 353 922 353 1747 
Q 353 2572 751 3078 
Q 1150 3584 1784 3584 
Q 2172 3584 2448 3432 
Q 2725 3281 2906 2969 
z
M 947 1747 
Q 947 1113 1208 752 
Q 1469 391 1925 391 
Q 2381 391 2643 752 
Q 2906 1113 2906 1747 
Q 2906 2381 2643 2742 
Q 2381 3103 1925 3103 
Q 1469 3103 1208 2742 
Q 947 2381 947 1747 
z
" transform="scale(0.015625)"/>
      </defs>
      <use xlink:href="#DejaVuSans-50"/>
      <use xlink:href="#DejaVuSans-72" x="58.552734"/>
      <use xlink:href="#DejaVuSans-6f" x="97.416016"/>
      <use xlink:href="#DejaVuSans-70" x="158.597656"/>
      <use xlink:href="#DejaVuSans-6f" x="222.074219"/>
      <use xlink:href="#DejaVuSans-73" x="283.255859"/>
      <use xlink:href="#DejaVuSans-65" x="335.355469"/>
      <use xlink:href="#DejaVuSans-64" x="396.878906"/>
     </g>
    </g>
   </g>
  </g>
 </g>
 <defs>
  <clipPath id="p3ae8c9ece4">
   <rect x="79.22" y="54.816" width="625.66" height="309.155471"/>
  </clipPath>
 </defs>
</svg>
